<svg id="Layer_35" enable-background="new 0 0 62 62" height="512" viewBox="0 0 62 62" width="512" xmlns="http://www.w3.org/2000/svg"><g><g><g><path d="m15 15h-3c-2.76 0-5-2.24-5-5v6h-1c-.86 0-1.64.36-2.19.95-.53-1.24-.81-2.59-.81-3.98v-.14c0-6.53 5.3-11.83 11.83-11.83h4.34c6.53 0 11.83 5.3 11.83 11.83 0 1.42-.3 2.8-.86 4.07-.01-.01-.01-.01-.02-.02-.54-.54-1.29-.88-2.12-.88h-1v-1h-2.11c-1.13 0-2.13-.72-2.49-1.8-.24-.71-.91-1.2-1.67-1.2-.47 0-.91.19-1.24.52l-.49.48-.48-.48c-.33-.33-.78-.52-1.25-.52-.76 0-1.43.49-1.67 1.2z" fill="#b27946"/></g><g><path d="m25 47v6h-4v-.76c0-1.79-1.45-3.24-3.24-3.24-1.11 0-2.12.54-2.73 1.45l-1.03 1.55-5-2v-3h-8v-.71c0-5.69 4-10.56 9.52-11.73l2.48 7.44 4-4 4 4 2.48-7.45c3.16.67 5.83 2.56 7.52 5.11v7.34z" fill="#fcd770"/></g><g><path d="m23.48 34.55-2.48 7.45-4-4 3-4 2.82.43c.22.03.44.08.66.12z" fill="#ffc729"/></g><g><path d="m14 34 3 4-4 4-2.48-7.44c.21-.06.44-.1.66-.13z" fill="#ffc729"/></g><g><path d="m35 31v18h-2-1c-.55 0-1-.45-1-1v-1-7.34-7.66c0-.55.45-1 1-1z" fill="#aab2bd"/></g><g><path d="m57 32v16c0 .55-.45 1-1 1h-9.4l-.51-5.1c-.05-.51-.48-.9-.99-.9h-2.2c-.51 0-.94.39-.99.9l-.51 5.1h-6.4v-18h21c.55 0 1 .45 1 1z" fill="#ccd1d9"/></g><g><path d="m53 59v2h-36v-2c0-1.1.9-2 2-2h1.02 8.98 4 4 14c1.1 0 2 .9 2 2z" fill="#d3a06c"/></g><g><path d="m46.6 49 .4 4h-6l.4-4 .51-5.1c.05-.51.48-.9.99-.9h2.2c.51 0 .94.39.99.9z" fill="#aab2bd"/></g><g><path d="m51 54v3h-14v-3c0-.55.45-1 1-1h3 6 3c.55 0 1 .45 1 1z" fill="#969faa"/></g><g><path d="m29 55v2h-8.98-1.02v-2c0-1.1.9-2 2-2h4 2c1.1 0 2 .9 2 2z" fill="#aab2bd"/></g><g><path d="m33 49v8h-4v-2c0-1.1-.9-2-2-2h-2v-6h6v1c0 .55.45 1 1 1z" fill="#f0d0b4"/></g><g><path d="m9 47v3l5 2 1.03-1.55c.61-.91 1.62-1.45 2.73-1.45 1.79 0 3.24 1.45 3.24 3.24v.76c-1.1 0-2 .9-2 2v2h-10c-4.42 0-8-3.58-8-8v-2z" fill="#f0d0b4"/></g><g><path d="m31 19.01c0 1.65-1.34 2.99-2.99 2.99h-.01-1.04-.01c.04-.32.05-.64.05-.96v-5.04h1c.83 0 1.58.34 2.12.88l.02.02v.01c.53.54.86 1.28.86 2.1z" fill="#f0d0b4"/></g><g><path d="m7 10c0 2.76 2.24 5 5 5h3l.6-1.8c.24-.71.91-1.2 1.67-1.2.47 0 .92.19 1.25.52l.48.48.49-.48c.33-.33.77-.52 1.24-.52.76 0 1.43.49 1.67 1.2.36 1.08 1.36 1.8 2.49 1.8h2.11v1 5.04c0 .32-.01.64-.05.96-.34 3.83-2.76 7.21-6.34 8.74-.37.16-.61.52-.61.92v2.34l-3 4-3-4v-2.34c0-.4-.24-.76-.61-.92-3.58-1.53-6-4.91-6.34-8.74-.04-.32-.05-.64-.05-.96v-5.04z" fill="#f0d0b4"/></g><g><path d="m7 21.04c0 .32.01.64.05.96h-.01-1.04-.02c-.82 0-1.56-.34-2.1-.88s-.88-1.28-.88-2.11c0-.8.31-1.53.81-2.06.55-.59 1.33-.95 2.19-.95h1z" fill="#f0d0b4"/></g><g><path d="m13 23h8c0 1.1-.45 2.1-1.17 2.83-.73.72-1.73 1.17-2.83 1.17-2.21 0-4-1.79-4-4z" fill="#ff826e"/></g><g><path d="m61 4.77c0 .15-.01.31-.03.46l-1.56 12.47c-.23 1.89-1.84 3.3-3.73 3.3h-4.68l-3.59 3.59c-.26.26-.62.41-1 .41-.78 0-1.41-.63-1.41-1.41v-2.59h-4.68c-1.89 0-3.5-1.41-3.73-3.3l-1.56-12.47c-.02-.15-.03-.31-.03-.46 0-2.08 1.69-3.77 3.77-3.77h18.46c1.04 0 1.98.42 2.67 1.1.68.69 1.1 1.63 1.1 2.67z" fill="#e6e9ed"/></g><g><path d="m57 7.83c0 .75-.3 1.47-.83 2l-1.17 1.17-4-4 1.17-1.17c.53-.53 1.25-.83 2-.83.78 0 1.49.32 2 .83s.83 1.22.83 2z" fill="#aab2bd"/></g><g><path d="m47.06 11.06 3.88 3.88.01.01c-1.69 1.32-3.78 2.05-5.95 2.05 0-2.17.73-4.26 2.05-5.95z" fill="#aab2bd"/></g><g><path d="m55 11-3.17 3.17c-.28.28-.57.54-.88.78l-.01-.01-3.88-3.88-.01-.01c.24-.31.5-.6.78-.88l3.17-3.17z" fill="#ff826e"/></g></g><g><path d="m57.234 0h-18.468c-2.628 0-4.766 2.138-4.766 4.766 0 .198.013.396.037.591l1.559 12.469c.297 2.38 2.33 4.174 4.729 4.174h3.675v1.586c0 1.331 1.083 2.414 2.414 2.414.637 0 1.259-.258 1.707-.707l3.293-3.293h4.262c2.398 0 4.432-1.794 4.729-4.174l1.559-12.468c.023-.197.036-.394.036-.592 0-2.628-2.138-4.766-4.766-4.766zm2.745 5.108-1.559 12.47c-.173 1.38-1.353 2.422-2.744 2.422h-5.09l-3.88 3.879c-.235.238-.706.045-.706-.293v-3.586h-5.676c-1.392 0-2.571-1.042-2.744-2.422l-1.559-12.47c-.014-.114-.021-.228-.021-.342 0-1.525 1.24-2.766 2.766-2.766h18.469c1.525 0 2.765 1.241 2.765 2.766 0 .114-.007.228-.021.342z"/><path d="m54.172 4c-1.023 0-1.984.398-2.707 1.122l-4.344 4.343c-1.775 1.775-2.844 4.067-3.072 6.536h-4.049v2h4 1c2.847 0 5.522-1.108 7.535-3.122l4.344-4.343c.723-.724 1.121-1.685 1.121-2.707 0-2.112-1.718-3.829-3.828-3.829zm-6.978 8.608 2.198 2.198c-1.016.6-2.144.985-3.327 1.13.144-1.184.529-2.312 1.129-3.328zm3.927.856c-.041.041-.085.077-.126.117l-2.576-2.576c.04-.041.076-.086.116-.126l2.465-2.465 2.586 2.586zm4.344-4.342-.465.464-2.586-2.586.465-.465c.341-.34.811-.535 1.293-.535 1.008 0 1.828.82 1.828 1.829 0 .488-.19.947-.535 1.293z"/><path d="m56 30h-24c-1.103 0-2 .897-2 2v4.926c-1.916-1.837-4.365-3.07-7.023-3.48l-1.976-.304.001-1.483c3.642-1.561 6.173-4.843 6.827-8.659h.186c2.197 0 3.985-1.788 3.985-3.985 0-.85-.268-1.636-.719-2.286.468-1.248.719-2.553.719-3.896 0-7.076-5.757-12.833-12.833-12.833h-4.334c-7.076 0-12.833 5.757-12.833 12.833v.141c0 1.307.239 2.581.683 3.801-.431.639-.683 1.41-.683 2.24 0 2.197 1.788 3.985 4 3.985h.17c.653 3.816 3.185 7.099 6.827 8.66l.001 1.482-1.976.304c-6.386.983-11.022 6.387-11.022 12.849v2.705c0 4.962 4.037 9 9 9h7.184c-.112.314-.184.648-.184 1v3h38v-3c0-1.302-.839-2.402-2-2.816v-2.184c0-1.103-.897-2-2-2h-2.095l-.2-2h8.295c1.103 0 2-.897 2-2v-16c0-1.103-.897-2-2-2zm-24 2h2v16h-2zm8.095 20h-2.095c-1.103 0-2 .897-2 2v2h-2v-6h6.295zm-8.095 4h-2v-1c0-1.654-1.346-3-3-3h-1v-4h4c0 1.103.897 2 2 2zm-11-2h6c.552 0 1 .449 1 1v1h-7.981-.019v-1c0-.551.448-1 1-1zm1.164-18.655-1.602 4.804-2.242-2.243 2.121-2.827zm5.837-14.345v-4c1.102.002 1.999.905 1.999 2.015 0 1.094-.89 1.984-1.999 1.985zm-24.001-8.167c0-5.974 4.859-10.833 10.833-10.833h4.334c5.974 0 10.833 4.859 10.833 10.833 0 .864-.129 1.709-.366 2.527-.5-.226-1.05-.359-1.633-.359v-1h-3.107c-.7 0-1.32-.447-1.542-1.111-.377-1.13-1.43-1.889-2.62-1.889-.638 0-1.242.214-1.73.608-.489-.395-1.093-.609-1.731-.609-1.19 0-2.243.759-2.62 1.889l-.344 1.03c-1.321-.313-2.307-1.503-2.307-2.919v-1h-2v1c0 1.046.325 2.016.877 2.82-1.656-.489-2.876-2.007-2.876-3.82h-.003-1.997-.003v5c-.596 0-1.157.141-1.666.377-.214-.781-.332-1.584-.332-2.404zm0 6.182c0-1.11.896-2.013 1.998-2.014v4h-.013c-1.094-.001-1.985-.892-1.985-1.986zm3.998 2.029v-6.587c1.063.956 2.464 1.543 4.003 1.543h3 .721l.826-2.479c.169-.506.888-.673 1.263-.299l1.189 1.192 1.193-1.191c.372-.375 1.092-.208 1.262.299.494 1.482 1.876 2.478 3.439 2.478h1.107v5.044c0 3.825-2.271 7.271-5.786 8.777-.737.316-1.213 1.037-1.213 1.837l-.002 2.01-2 2.666-2.001-2.667-.002-2.007c0-.801-.476-1.522-1.213-1.838-3.514-1.508-5.786-4.953-5.786-8.778zm5.561 14.036 2.121 2.827-2.243 2.243-1.601-4.804zm-3.693.679 2.698 8.092 4.436-4.437 4.437 4.437 2.694-8.087c2.363.705 4.438 2.189 5.868 4.225v6.011h-4v-4h-2v10h-2.025c-.129-2.225-1.962-4-4.219-4-1.436 0-2.765.708-3.556 1.896l-.583.875-3.616-1.448v-7.323h-2v4h-5.987c.126-4.831 3.313-8.905 7.853-10.241zm-7.866 13.241v-1h6v1.586l-1.707 1.707 1.414 1.414 1.534-1.534 5.141 2.057 1.483-2.225c.419-.63 1.126-1.005 1.892-1.005 1.218 0 2.206.976 2.237 2.186-1.158.416-1.994 1.514-1.994 2.814v1h-9c-3.859 0-7-3.14-7-7zm50 11h-34v-1c0-.551.448-1 1-1h1.019 30.981c.552 0 1 .449 1 1zm-2-4h-12v-2h12zm-7.895-4 .8-8h2.189l.8 8zm13.895-4h-8.495l-.42-4.198c-.102-1.028-.958-1.802-1.99-1.802h-2.189c-1.032 0-1.889.774-1.99 1.801l-.421 4.199h-4.495v-16h20z"/><circle cx="22" cy="18" r="1"/><circle cx="12" cy="18" r="1"/><path d="m22 23v-1h-10v1c0 2.757 2.243 5 5 5s5-2.243 5-5zm-7.829 1h5.658c-.413 1.164-1.525 2-2.829 2s-2.416-.836-2.829-2z"/></g></g></svg>